Coordinates
version=1
nRows=16
nColumns=33
inDegrees=yes

Units are S.I. units (second, meters, Newtons, ...)
Angles are in degrees.

endheader
time	ground_thorax_rot_x	ground_thorax_rot_y	ground_thorax_rot_z	ground_thorax_tx	ground_thorax_ty	ground_thorax_tz	clav_prot_r	clav_elev_r	scapula_abduction_r	scapula_elevation_r	scapula_upward_rot_r	scapula_winging_r	shoulder_elv_r	plane_of_elev_r	axial_rot_r	elbow_flexion_r	pro_sup_r	wrist_flex_r	wrist_dev_r	clav_prot_l	clav_elev_l	scapula_abduction_l	scapula_elevation_l	scapula_upward_rot_l	scapula_winging_l	shoulder_elv_l	plane_of_elev_l	axial_rot_l	elbow_flexion_l	pro_sup_l	wrist_flex_l	wrist_dev_l
      3.53000000	     -0.52147682	      2.73650532	     13.05405250	     -0.11736448	      1.02788449	      0.01663386	      7.57144336	    -12.09880288	     11.80855142	     -3.32024643	     -3.58877908	     -0.55211948	    -55.20721472	    -75.53606928	     84.67566560	    -63.99942875	   -137.63943390	     52.51095578	    -24.99999983	     10.57049820	     -0.87118357	    -14.05760585	    -22.53948675	    -38.50414032	     -1.23628082	     58.11863972	    -35.54234982	     -4.45149968	     58.08869428	     28.97965852	     -5.31180800	    -24.99999983
      3.54000000	     -0.51814548	      2.79282263	     13.02002172	     -0.11718482	      1.02763256	      0.01657971	      7.49029888	    -11.99719068	     11.68726615	     -3.24828038	     -3.54092417	     -0.54945671	    -55.08956685	    -75.49460589	     84.68485812	    -64.51174834	   -137.77657840	     52.61939650	    -24.99999983	     10.58118821	     -0.78863138	    -14.06610632	    -22.61574268	    -38.49482936	     -1.24295557	     58.12812287	    -35.50137367	     -4.37789742	     58.45821606	     28.89661769	     -5.37140136	    -24.99999983
      3.55000000	     -0.53490372	      2.83331615	     13.13418731	     -0.11726959	      1.02809088	      0.01642122	      7.48136910	    -12.01411745	     11.70079604	     -3.29190377	     -3.47585026	     -0.55312253	    -55.05012455	    -75.49567902	     84.67051691	    -64.58772681	   -137.79091250	     52.62794710	    -24.99999983	     10.57803356	     -0.79612123	    -14.05898781	    -22.60141934	    -38.47927372	     -1.24296686	     58.13297061	    -35.47076639	     -4.36870404	     58.49264168	     28.89045322	     -5.37649840	    -24.99999983
      3.56000000	     -0.53778409	      2.92173157	     12.94643942	     -0.11695753	      1.02754525	      0.01657748	      7.37631641	    -11.85046796	     11.54661290	     -3.17295124	     -3.40407094	     -0.56457447	    -54.88049389	    -75.28673374	     84.64077908	    -65.56539041	   -138.03713337	     52.78410806	    -24.99999983	     10.57022746	     -0.72590931	    -14.02432033	    -22.64515062	    -38.42433849	     -1.25708918	     58.21137980	    -35.41277161	     -4.12592273	     59.11771725	     28.75517450	     -5.49745297	    -24.99999983
      3.57000000	     -0.53728462	      2.97453770	     12.92947596	     -0.11687827	      1.02736283	      0.01653962	      7.31297236	    -11.77854897	     11.45042099	     -3.12187923	     -3.37113809	     -0.56036850	    -54.70907285	    -75.25959829	     84.62637415	    -66.20448913	   -138.30411490	     52.85772480	    -24.99999983	     10.57567721	     -0.70153425	    -14.03283845	    -22.66971017	    -38.42484672	     -1.25822871	     58.26207019	    -35.38530439	     -3.95746647	     59.56136006	     28.63246148	     -5.60450651	    -24.99999983
      3.58000000	     -0.51736181	      3.11596021	     13.07704369	     -0.11730656	      1.02785905	      0.01636765	      7.04203217	    -12.38108629	     10.46994981	     -3.13199612	     -4.65498408	      0.10844927	    -53.17079745	    -75.95570493	     85.73013094	    -67.27305647	   -141.74843257	     52.33326961	    -24.99999983	     10.87789695	     -1.14019687	    -14.83319856	    -22.64098955	    -39.32937553	     -1.01258217	     58.45231623	    -35.15334638	     -3.45499617	     59.92613206	     27.49406743	     -6.48256803	    -24.99999983
      3.59000000	     -0.58944525	      3.21462003	     13.09398843	     -0.11713003	      1.02773857	      0.01642417	      6.93532144	    -12.26217165	     10.35763154	     -3.10217836	     -4.47464237	      0.09655205	    -53.03184160	    -75.77986579	     85.72291915	    -67.81820424	   -141.79334548	     52.43753693	    -24.99999983	     10.85600719	     -1.03480906	    -14.76072702	    -22.69732626	    -39.22520719	     -1.04107675	     58.53518548	    -35.10746973	     -3.22675793	     60.33790990	     27.42900142	     -6.56192428	    -24.99999983
      3.60000000	     -0.63880209	      3.29861623	     13.07328593	     -0.11700185	      1.02769961	      0.01639635	      6.85647255	    -12.18973542	     10.29968176	     -3.12063719	     -4.28046811	      0.07578481	    -52.88664100	    -75.66162299	     85.72160910	    -68.43512377	   -141.87159101	     52.52832847	    -24.99999983	     10.84685029	     -0.96294607	    -14.71281338	    -22.72493625	    -39.13208069	     -1.05564057	     58.60607455	    -35.03068871	     -3.03367770	     60.80375307	     27.35766756	     -6.64913900	    -24.99999983
      3.61000000	     -0.68774465	      3.40756135	     13.05421101	     -0.11694022	      1.02764071	      0.01635132	      6.79467218	    -12.12327776	     10.26065390	     -3.13207666	     -4.11455910	      0.05620465	    -52.74757716	    -75.56317985	     85.73425369	    -69.07260340	   -141.98373934	     52.59508840	    -24.99999983	     10.83464710	     -0.91382819	    -14.66145035	    -22.72202170	    -39.02079732	     -1.06548342	     58.70436334	    -34.94102302	     -2.79673289	     61.30085921	     27.27290159	     -6.75146704	    -24.99999983
      3.62000000	     -0.72872613	      3.48050170	     13.04694500	     -0.11685934	      1.02759093	      0.01632660	      6.73801067	    -12.07964017	     10.24135323	     -3.17561523	     -3.92398668	      0.03611293	    -52.58356106	    -75.47889414	     85.74125030	    -69.72673231	   -142.13220550	     52.63059097	    -24.99999983	     10.82818732	     -0.87897427	    -14.62281608	    -22.71306955	    -38.92600347	     -1.06826606	     58.80138203	    -34.86294745	     -2.56340166	     61.80518578	     27.18179584	     -6.85909339	    -24.99999983
      3.63000000	     -0.77646180	      3.58232018	     13.03224255	     -0.11679945	      1.02754030	      0.01624624	      6.70029721	    -12.05363827	     10.25047656	     -3.22865269	     -3.74749053	      0.01252993	    -52.42542926	    -75.41452636	     85.77248328	    -70.38936822	   -142.31660036	     52.62941366	    -24.99999983	     10.82373879	     -0.86224209	    -14.58723042	    -22.67908812	    -38.81934078	     -1.06607169	     58.91956601	    -34.76742984	     -2.30802784	     62.33775303	     27.07884730	     -6.97583381	    -24.99999983
      3.64000000	     -0.63198045	      3.54351719	     13.12035976	     -0.11708808	      1.02783261	      0.01600691	      6.75282112	    -12.21704496	     10.13292355	     -3.15858088	     -4.25767827	      0.14932728	    -51.08370982	    -75.82396880	     86.97312316	    -71.44679661	   -144.82060554	     50.83950403	    -24.99999983	     10.86506603	     -1.36485368	    -14.82714784	    -22.41762051	    -39.32168360	     -0.98435851	     59.09482463	    -34.76873550	     -1.74175718	     62.90201410	     26.33786311	     -7.66744925	    -24.99999983
      3.65000000	     -0.71067138	      3.61550223	     13.13661737	     -0.11704659	      1.02782629	      0.01602825	      6.71455437	    -12.22237608	     10.17417269	     -3.27582078	     -4.00134710	      0.12442798	    -50.94248086	    -75.72368754	     87.01327705	    -72.08449697	   -144.86849765	     50.91351567	    -24.99999983	     10.88486046	     -1.28099062	    -14.81821168	    -22.42879675	    -39.17128980	     -0.97062039	     59.23270995	    -34.63042364	     -1.60943642	     63.35298258	     26.27733113	     -7.73186989	    -24.99999983
      3.66000000	     -0.77257634	      3.76873502	     13.10794062	     -0.11694202	      1.02771056	      0.01588557	      6.69590501	    -12.22494739	     10.24088847	     -3.38134066	     -3.76520382	      0.08911772	    -50.77076300	    -75.65530121	     87.03583678	    -72.66216710	   -144.96401667	     50.92335917	    -24.99999983	     10.89917517	     -1.21043508	    -14.79282448	    -22.41016238	    -38.98564694	     -0.95741832	     59.39493524	    -34.43979103	     -1.41535373	     63.92408499	     26.19064466	     -7.80919805	    -24.99999983
      3.67000000	     -0.79504792	      3.77560734	     13.09293265	     -0.11714731	      1.02769769	      0.01573116	      6.76381630	    -12.22841056	     10.32685732	     -3.35144134	     -3.83769368	      0.06244596	    -49.20223207	    -75.71247517	     88.67052999	    -73.53775106	   -146.77141968	     48.80666657	    -24.99999983	     10.96478271	     -1.30690257	    -14.97136561	    -22.41176429	    -39.20067765	     -0.90569341	     59.64891035	    -34.16612353	     -1.07128736	     64.45437696	     25.39152912	     -7.79812566	    -24.99999983
      3.68000000	     -0.84977523	      3.85576338	     13.13822476	     -0.11700264	      1.02769616	      0.01570100	      6.74207280	    -12.25754377	     10.39961863	     -3.49106558	     -3.57895789	      0.03751029	    -49.02542044	    -75.63515747	     88.68796144	    -74.14034946	   -146.79956393	     48.87208369	    -24.99999983	     10.98443410	     -1.25434671	    -14.96272517	    -22.38584431	    -39.03793474	     -0.88514164	     59.79119825	    -34.00473328	     -0.91571285	     64.96157741	     25.32253849	     -7.84492156	    -24.99999983
